<svg viewBox="0 0 1000 800" xmlns="http://www.w3.org/2000/svg" xmlns:xlink="http://www.w3.org/1999/xlink">
  <!-- Background -->
  <rect x="0" y="0" width="1000" height="800" fill="#f5f5f5" rx="10" ry="10"/>
  
  <!-- AWS Cloud Border -->
  <rect x="20" y="60" width="960" height="720" fill="#ffffff" stroke="#232F3E" stroke-width="2" stroke-dasharray="5,5" rx="10" ry="10"/>
  
  <!-- Title -->
  <text x="500" y="40" font-family="Arial" font-size="22" font-weight="bold" text-anchor="middle" fill="#232F3E">Cloud-Based Collaborative Environment Architecture</text>
  
  <!-- AWS Cloud Label -->
  <text x="70" y="90" font-family="Arial" font-size="16" fill="#232F3E">Cloud (us-east-1)</text>
  
  <!-- VPC -->
  <rect x="40" y="110" width="920" height="650" fill="#E9F5E9" stroke="#688EC0" stroke-width="2" rx="8" ry="8"/>
  
  <!-- VPC Label -->
  <text x="70" y="140" font-family="Arial" font-size="16" font-weight="bold" fill="#232F3E">VPC: shared-service-vpc (10.0.0.0/16)</text>
  
  <!-- Internet Gateway -->
  <rect x="460" y="60" width="80" height="30" fill="#F9F0D3" stroke="#8C4FFF" stroke-width="2" rx="5" ry="5"/>
  <text x="500" y="80" font-family="Arial" font-size="12" text-anchor="middle" fill="#232F3E">Internet Gateway</text>
  
  <line x1="500" y1="80" x2="500" y2="110" stroke="#8C4FFF" stroke-width="2" stroke-dasharray="5,3"/>
  
  <!-- AZ a -->
  <rect x="60" y="170" width="420" height="570" fill="#F7FBFF" stroke="#3F8624" stroke-width="2" stroke-dasharray="5,3" rx="8" ry="8"/>
  <text x="130" y="195" font-family="Arial" font-size="14" fill="#232F3E">Availability Zone a</text>
  
  <!-- AZ b -->
  <rect x="520" y="170" width="420" height="570" fill="#F7FBFF" stroke="#3F8624" stroke-width="2" stroke-dasharray="5,3" rx="8" ry="8"/>
  <text x="590" y="195" font-family="Arial" font-size="14" fill="#232F3E">Availability Zone b</text>
  
  <!-- Public Subnets AZ a -->
  <!-- MinIO Subnet A -->
  <rect x="80" y="210" width="380" height="140" fill="#D4EDDA" stroke="#1E8900" stroke-width="2" rx="5" ry="5"/>
  <text x="130" y="235" font-family="Arial" font-size="14" fill="#232F3E">Public Subnet: MinIO Subnet A (10.0.1.0/24)</text>
  
  <!-- Grafana Subnet -->
  <rect x="80" y="370" width="380" height="140" fill="#D4EDDA" stroke="#1E8900" stroke-width="2" rx="5" ry="5"/>
  <text x="130" y="395" font-family="Arial" font-size="14" fill="#232F3E">Public Subnet: Grafana Subnet (10.0.5.0/24)</text>
  
  <!-- Cryptpad Subnet -->
  <rect x="80" y="530" width="380" height="190" fill="#D4EDDA" stroke="#1E8900" stroke-width="2" rx="5" ry="5"/>
  <text x="130" y="555" font-family="Arial" font-size="14" fill="#232F3E">Public Subnet: Cryptpad Subnet (10.0.6.0/24)</text>
  
  <!-- Public Subnet AZ b -->
  <!-- MinIO Subnet B -->
  <rect x="540" y="210" width="380" height="140" fill="#D4EDDA" stroke="#1E8900" stroke-width="2" rx="5" ry="5"/>
  <text x="590" y="235" font-family="Arial" font-size="14" fill="#232F3E">Public Subnet: MinIO Subnet B (10.0.2.0/24)</text>
  
  <!-- Load Balancer -->
  <rect x="400" y="120" width="200" height="50" fill="#FFD8A8" stroke="#D86613" stroke-width="2" rx="5" ry="5"/>
  <text x="500" y="135" font-family="Arial" font-size="12" text-anchor="middle" fill="#232F3E">MinIO Application Load Balancer</text>
  <text x="500" y="160" font-family="Arial" font-size="10" text-anchor="middle" fill="#232F3E">Port 80 → 9000 (API), Port 9001 (Console)</text>
  
  <!-- EC2 Instances AZ a -->
  <!-- MinIO Server A -->
  <rect x="100" y="250" width="180" height="80" fill="#C3E6CB" stroke="#1D7902" stroke-width="2" rx="5" ry="5"/>
  <text x="190" y="275" font-family="Arial" font-size="12" font-weight="bold" text-anchor="middle" fill="#232F3E">MinIO Server A</text>
  <text x="190" y="295" font-family="Arial" font-size="10" text-anchor="middle" fill="#232F3E">t3.micro - Amazon Linux 2</text>
  <text x="190" y="310" font-family="Arial" font-size="9" text-anchor="middle" fill="#232F3E">Docker container: minio/minio</text>
  <text x="190" y="325" font-family="Arial" font-size="9" text-anchor="middle" fill="#232F3E">/minio/data → /data (container)</text>
  
  <!-- EBS Volume for MinIO A -->
  <rect x="310" y="250" width="130" height="60" fill="#E4D5EC" stroke="#693CC5" stroke-width="2" rx="3" ry="3"/>
  <text x="375" y="275" font-family="Arial" font-size="11" text-anchor="middle" fill="#232F3E">EBS Volume 30GB</text>
  <text x="375" y="290" font-family="Arial" font-size="9" text-anchor="middle" fill="#232F3E">gp2 (SSD)</text>
  
  <!-- Grafana Server -->
  <rect x="100" y="410" width="180" height="80" fill="#C3E6CB" stroke="#1D7902" stroke-width="2" rx="5" ry="5"/>
  <text x="190" y="435" font-family="Arial" font-size="12" font-weight="bold" text-anchor="middle" fill="#232F3E">Grafana Server</text>
  <text x="190" y="455" font-family="Arial" font-size="10" text-anchor="middle" fill="#232F3E">t3.micro - Amazon Linux 2</text>
  <text x="190" y="470" font-family="Arial" font-size="9" text-anchor="middle" fill="#232F3E">Grafana v10.0.3</text>
  
  <!-- S3 Bucket for Grafana -->
  <!-- <rect x="310" y="410" width="130" height="40" fill="#FFD07A" stroke="#E78C07" stroke-width="2" rx="3" ry="3"/>
  <text x="375" y="430" font-family="Arial" font-size="11" text-anchor="middle" font-weight="bold" fill="#232F3E">S3 Bucket</text>
  <text x="375" y="445" font-family="Arial" font-size="9" text-anchor="middle" fill="#232F3E">Grafana Storage</text> -->
  
  <!-- Cryptpad Server -->
  <rect x="100" y="570" width="180" height="80" fill="#C3E6CB" stroke="#1D7902" stroke-width="2" rx="5" ry="5"/>
  <text x="190" y="595" font-family="Arial" font-size="12" font-weight="bold" text-anchor="middle" fill="#232F3E">Cryptpad Server</text>
  <text x="190" y="615" font-family="Arial" font-size="10" text-anchor="middle" fill="#232F3E">t3.small - Ubuntu</text>
  <text x="190" y="630" font-family="Arial" font-size="9" text-anchor="middle" fill="#232F3E">Node.js/NPM</text>
  
  <!-- EBS Volume for Cryptpad -->
  <rect x="310" y="570" width="130" height="40" fill="#E4D5EC" stroke="#693CC5" stroke-width="2" rx="3" ry="3"/>
  <text x="375" y="590" font-family="Arial" font-size="11" text-anchor="middle" fill="#232F3E">EBS Volume 20GB</text>
  <text x="375" y="605" font-family="Arial" font-size="9" text-anchor="middle" fill="#232F3E">gp2 (SSD) - Persistent</text>
  
  <!-- S3 Bucket for Cryptpad -->
  <rect x="310" y="620" width="130" height="40" fill="#FFD07A" stroke="#E78C07" stroke-width="2" rx="3" ry="3"/>
  <text x="375" y="640" font-family="Arial" font-size="11" text-anchor="middle" font-weight="bold" fill="#232F3E">S3 Bucket</text>
  <text x="375" y="655" font-family="Arial" font-size="9" text-anchor="middle" fill="#232F3E">Cryptpad Backup</text>

  <!-- Elastic IP -->
  <rect x="100" y="670" width="90" height="30" fill="#B3E5FC" stroke="#0288D1" stroke-width="2" rx="5" ry="5"/>
  <text x="145" y="690" font-family="Arial" font-size="10" text-anchor="middle" fill="#232F3E">Elastic IP</text>
  
  <!-- IAM Role -->
  <!-- <rect x="200" y="670" width="80" height="30" fill="#FFE8D1" stroke="#FF9900" stroke-width="2" rx="5" ry="5"/>
  <text x="240" y="690" font-family="Arial" font-size="10" text-anchor="middle" fill="#232F3E">IAM Role</text> -->
  
  <!-- EC2 Instance AZ b -->
  <!-- MinIO Server B -->
  <rect x="560" y="250" width="180" height="80" fill="#C3E6CB" stroke="#1D7902" stroke-width="2" rx="5" ry="5"/>
  <text x="650" y="275" font-family="Arial" font-size="12" font-weight="bold" text-anchor="middle" fill="#232F3E">MinIO Server B</text>
  <text x="650" y="295" font-family="Arial" font-size="10" text-anchor="middle" fill="#232F3E">t3.micro - Amazon Linux 2</text>
  <text x="650" y="310" font-family="Arial" font-size="9" text-anchor="middle" fill="#232F3E">Docker container: minio/minio</text>
  <text x="650" y="325" font-family="Arial" font-size="9" text-anchor="middle" fill="#232F3E">/minio/data → /data (container)</text>
  
  <!-- EBS Volume for MinIO B -->
  <rect x="770" y="250" width="130" height="60" fill="#E4D5EC" stroke="#693CC5" stroke-width="2" rx="3" ry="3"/>
  <text x="835" y="275" font-family="Arial" font-size="11" text-anchor="middle" fill="#232F3E">EBS Volume 30GB</text>
  <text x="835" y="290" font-family="Arial" font-size="9" text-anchor="middle" fill="#232F3E">gp2 (SSD)</text>
  
  <!-- CloudWatch -->
  <rect x="560" y="370" width="200" height="90" fill="#D1ECFB" stroke="#1166BB" stroke-width="2" rx="5" ry="5"/>
  <text x="660" y="395" font-family="Arial" font-size="12" text-anchor="middle" font-weight="bold" fill="#232F3E">CloudWatch</text>
  <text x="660" y="415" font-family="Arial" font-size="10" text-anchor="middle" fill="#232F3E">MinIO Dashboard</text>
  <text x="660" y="430" font-family="Arial" font-size="10" text-anchor="middle" fill="#232F3E">Cryptpad Dashboard</text>
  <text x="660" y="445" font-family="Arial" font-size="9" text-anchor="middle" fill="#232F3E">Custom metrics collection via scripts</text>
  
  <!-- Route Tables -->
  <rect x="560" y="480" width="200" height="40" fill="#F8D3B8" stroke="#9D5025" stroke-width="2" rx="5" ry="5"/>
  <text x="660" y="500" font-family="Arial" font-size="12" text-anchor="middle" font-weight="bold" fill="#232F3E">Route Tables</text>
  <text x="660" y="515" font-family="Arial" font-size="9" text-anchor="middle" fill="#232F3E">Default route to Internet Gateway</text>
  
  <!-- Security Groups -->
  <rect x="560" y="540" width="200" height="90" fill="#E8EAED" stroke="#7D8998" stroke-width="2" rx="5" ry="5"/>
  <text x="660" y="560" font-family="Arial" font-size="12" text-anchor="middle" font-weight="bold" fill="#232F3E">Security Groups</text>
  <text x="660" y="580" font-family="Arial" font-size="10" text-anchor="middle" fill="#232F3E">• MinIO SG (9000, 9001)</text>
  <text x="660" y="600" font-family="Arial" font-size="10" text-anchor="middle" fill="#232F3E">• Grafana SG (3000)</text>
  <text x="660" y="620" font-family="Arial" font-size="10" text-anchor="middle" fill="#232F3E">• Cryptpad SG (3000, 3001, 3003)</text>
  
  <!-- Connection Lines -->
  <!-- IGW to ALB -->
  <line x1="500" y1="80" x2="500" y2="150" stroke="#8C4FFF" stroke-width="2"/>
  
  <!-- ALB to MinIO Servers -->
  <line x1="400" y1="170" x2="200" y2="250" stroke="#D86613" stroke-width="2"/>
  <line x1="600" y1="170" x2="650" y2="250" stroke="#D86613" stroke-width="2"/>
  
  <!-- EBS to MinIO Server A -->
  <line x1="310" y1="270" x2="280" y2="270" stroke="#693CC5" stroke-width="1" stroke-dasharray="3,3"/>
  
  <!-- EBS to MinIO Server B -->
  <line x1="770" y1="270" x2="740" y2="270" stroke="#693CC5" stroke-width="1" stroke-dasharray="3,3"/>
  
  <!-- EBS to Cryptpad Server -->
  <line x1="310" y1="590" x2="280" y2="590" stroke="#693CC5" stroke-width="1" stroke-dasharray="3,3"/>
  
  <!-- S3 to Grafana Server -->
  <!-- <line x1="310" y1="430" x2="280" y2="430" stroke="#E78C07" stroke-width="1" stroke-dasharray="3,3"/> -->
  
  <!-- S3 to Cryptpad Server -->
  <line x1="310" y1="640" x2="280" y2="640" stroke="#E78C07" stroke-width="1" stroke-dasharray="3,3"/>
  
  <!-- CloudWatch Connections -->
  <line x1="560" y1="410" x2="280" y2="270" stroke="#1166BB" stroke-width="1" stroke-dasharray="3,3"/>
  <line x1="560" y1="410" x2="740" y2="290" stroke="#1166BB" stroke-width="1" stroke-dasharray="3,3"/>
  <line x1="560" y1="420" x2="280" y2="430" stroke="#1166BB" stroke-width="1" stroke-dasharray="3,3"/>
  <line x1="560" y1="430" x2="280" y2="590" stroke="#1166BB" stroke-width="1" stroke-dasharray="3,3"/>
  
  <!-- Grafana Monitoring Connections -->
  <line x1="200" y1="410" x2="200" y2="330" stroke="#1D7902" stroke-width="1" stroke-dasharray="3,3"/>
  <line x1="200" y1="410" x2="650" y2="330" stroke="#1D7902" stroke-width="1" stroke-dasharray="2,2"/>
  <line x1="200" y1="490" x2="200" y2="570" stroke="#1D7902" stroke-width="1" stroke-dasharray="3,3"/>
  
  <!-- Legend -->
  <rect x="40" y="740" width="920" height="30" fill="#ffffff" stroke="none"/>
  
  <!-- Legend Items -->
  <rect x="60" y="750" width="15" height="15" fill="#C3E6CB" stroke="#1D7902" stroke-width="1"/>
  <text x="85" y="762" font-family="Arial" font-size="10" fill="#232F3E">EC2 Instance</text>
  
  <rect x="170" y="750" width="15" height="15" fill="#FFD07A" stroke="#E78C07" stroke-width="1"/>
  <text x="195" y="762" font-family="Arial" font-size="10" fill="#232F3E">S3 Bucket</text>
  
  <rect x="260" y="750" width="15" height="15" fill="#FFD8A8" stroke="#D86613" stroke-width="1"/>
  <text x="285" y="762" font-family="Arial" font-size="10" fill="#232F3E">Load Balancer</text>
  
  <rect x="370" y="750" width="15" height="15" fill="#D1ECFB" stroke="#1166BB" stroke-width="1"/>
  <text x="395" y="762" font-family="Arial" font-size="10" fill="#232F3E">CloudWatch</text>
  
  <rect x="470" y="750" width="15" height="15" fill="#E4D5EC" stroke="#693CC5" stroke-width="1"/>
  <text x="495" y="762" font-family="Arial" font-size="10" fill="#232F3E">EBS Volume</text>
  
  <rect x="570" y="750" width="15" height="15" fill="#F9F0D3" stroke="#8C4FFF" stroke-width="1"/>
  <text x="595" y="762" font-family="Arial" font-size="10" fill="#232F3E">Internet Gateway</text>
  
  <rect x="680" y="750" width="15" height="15" fill="#E8EAED" stroke="#7D8998" stroke-width="1"/>
  <text x="705" y="762" font-family="Arial" font-size="10" fill="#232F3E">Security Group</text>
  
  <rect x="790" y="750" width="15" height="15" fill="#D4EDDA" stroke="#1E8900" stroke-width="1"/>
  <text x="815" y="762" font-family="Arial" font-size="10" fill="#232F3E">Subnet</text>
</svg>